/* XPM */
static char *_e9ba367cf2b4ad6d077f600b64de9d1bfiOm1BTjruoYyOU[] = {
/* columns rows colors chars-per-pixel */
"64 64 256 2 ",
"   c #000001",
".  c #0B0006",
"X  c #01000C",
"o  c #000114",
"O  c #0B0F10",
"+  c #01011B",
"@  c #06081A",
"#  c #0A141D",
"$  c #15161B",
"%  c #000123",
"&  c #010C23",
"*  c #050529",
"=  c #021424",
"-  c #0C1423",
";  c #02142A",
":  c #031B2D",
">  c #091828",
",  c #0C1B2B",
"<  c #131725",
"1  c #121C25",
"2  c #131D2B",
"3  c #030931",
"4  c #031C32",
"5  c #011837",
"6  c #0C1E32",
"7  c #131A30",
"8  c #08202B",
"9  c #0D222D",
"0  c #13222D",
"q  c #1A252E",
"w  c #042335",
"e  c #0C2233",
"r  c #0C253A",
"t  c #05283A",
"y  c #0C2A3C",
"u  c #132433",
"i  c #1A2432",
"p  c #142A36",
"a  c #1A2837",
"s  c #12263A",
"d  c #142B3D",
"f  c #1B2B3B",
"g  c #01323E",
"h  c #1A313D",
"j  c #242E38",
"k  c #001B41",
"l  c #092C43",
"z  c #132D42",
"x  c #192D42",
"c  c #0A3448",
"v  c #143344",
"b  c #1A3344",
"n  c #15364B",
"m  c #18394B",
"M  c #1B3A4C",
"N  c #063B56",
"B  c #0D3B53",
"V  c #153B53",
"C  c #1B3D53",
"Z  c #183A56",
"A  c #253948",
"S  c #243D54",
"D  c #3A3F51",
"F  c #1A464E",
"G  c #084459",
"H  c #174457",
"J  c #15445C",
"K  c #1C445B",
"L  c #1C4A5D",
"P  c #234355",
"I  c #2A4455",
"U  c #22445B",
"Y  c #284A5B",
"T  c #304A56",
"R  c #364B59",
"E  c #29525C",
"W  c #134B63",
"Q  c #194A66",
"!  c #1C4B64",
"~  c #0B506C",
"^  c #185367",
"/  c #14536C",
"(  c #1C536C",
")  c #1D5571",
"_  c #1C5B74",
"`  c #175B79",
"'  c #244B63",
"]  c #274C66",
"[  c #344F66",
"{  c #2C5364",
"}  c #23536B",
"|  c #2C536B",
" . c #26586A",
".. c #355769",
"X. c #225572",
"o. c #235B75",
"O. c #2B5B74",
"+. c #245D7A",
"@. c #2B5B78",
"#. c #365C75",
"$. c #0C657E",
"%. c #18637A",
"&. c #1C637C",
"*. c #35636D",
"=. c #2C6874",
"-. c #276479",
";. c #2C647C",
":. c #34647C",
">. c #386778",
",. c #44596B",
"<. c #436579",
"1. c #4A6C79",
"2. c #1A5E81",
"3. c #285F80",
"4. c #1B6783",
"5. c #1C6C89",
"6. c #11728D",
"7. c #1B748B",
"8. c #226583",
"9. c #276985",
"0. c #2D6A85",
"q. c #2B6D8B",
"w. c #346584",
"e. c #336A83",
"r. c #3B6B85",
"t. c #346C8A",
"y. c #3B6E8A",
"u. c #26748B",
"i. c #2C738D",
"p. c #34738D",
"a. c #3C728C",
"s. c #387889",
"d. c #297996",
"f. c #347493",
"g. c #3A7493",
"h. c #347B93",
"j. c #3B7B95",
"k. c #347B9A",
"l. c #3C7C9B",
"z. c #3A7FA0",
"x. c #456C84",
"c. c #536B87",
"v. c #42738C",
"b. c #497789",
"n. c #577789",
"m. c #427592",
"M. c #4C7A94",
"N. c #467B98",
"B. c #567C98",
"V. c #1A8399",
"C. c #27849C",
"Z. c #35829D",
"A. c #398798",
"S. c #3B819C",
"D. c #1C91A8",
"F. c #268AA4",
"G. c #2B8BA5",
"H. c #3383A1",
"J. c #3B84A2",
"K. c #338BA4",
"L. c #3B8BA3",
"P. c #348DAA",
"I. c #3C8CA9",
"U. c #2895AC",
"Y. c #3593A9",
"T. c #3B93AC",
"R. c #289BB4",
"E. c #3698B4",
"W. c #3B9CB4",
"Q. c #1AA5B7",
"!. c #29A5BA",
"~. c #38A8B2",
"^. c #38A5B9",
"/. c #3CA4BB",
"(. c #42839D",
"). c #4C839C",
"_. c #45889C",
"`. c #53839C",
"'. c #59869B",
"]. c #499199",
"[. c #68899A",
"{. c #4384A3",
"}. c #4789A5",
"|. c #4A8BA4",
" X c #5585A2",
".X c #558AA5",
"XX c #5A8AA4",
"oX c #4393AC",
"OX c #4896AA",
"+X c #5894AB",
"@X c #439BB4",
"#X c #499BB7",
"$X c #5899B7",
"%X c #668CA5",
"&X c #6794A9",
"*X c #7395AB",
"=X c #669AB6",
"-X c #4BAAB3",
";X c #43A3BA",
":X c #46A6B8",
">X c #4BA3BB",
",X c #57A4BA",
"<X c #67A4BB",
"1X c #29ABC5",
"2X c #39A9C2",
"3X c #2CB3C4",
"4X c #38B6C7",
"5X c #39BBD4",
"6X c #6E9EC3",
"7X c #43ABC4",
"8X c #49A9C6",
"9X c #4BACC4",
"0X c #4CADC9",
"qX c #53ABC4",
"wX c #56A8C5",
"eX c #47B6CA",
"rX c #56B6C9",
"tX c #53AFD1",
"yX c #4BBBD4",
"uX c #57BAD4",
"iX c #67A6C5",
"pX c #6DB0CB",
"aX c #68B9D7",
"sX c #7BB6D8",
"dX c #3AC9D6",
"fX c #31D1DA",
"gX c #34CCE0",
"hX c #3DDBE6",
"jX c #36E2E3",
"kX c #48C4D6",
"lX c #4FCCD5",
"zX c #56C6D8",
"xX c #6BC5D5",
"cX c #63C5DA",
"vX c #65D4DB",
"bX c #55CDE4",
"nX c #46DBE6",
"mX c #58D9E6",
"MX c #68C8E4",
"NX c #76C9E8",
"BX c #64DBEA",
"VX c #70D7F0",
"CX c #76D6F7",
"ZX c #46E8EC",
"AX c #51E5EF",
"SX c #59E3F1",
"DX c #5AFDFE",
"FX c #67E5EC",
"GX c #6CEFF9",
"HX c #83A9BC",
"JX c #88B6D4",
"KX c #98C8DB",
"LX c #8BCEE9",
"PX c #9FDAEC",
"IX c #99D7F5",
"UX c #A8D7EE",
/* pixels */
"@ X X # p A M A P E h - 2 2 j T I R T T I b d d f x d d d 6 , u 0 o A { :.|.>X8XyXyXeX7X@XE.G >.$XN.M.v.v.v.v.m.m.a.y.y.y.a.t.&.",
":.r.v.(.|.#X#XqXrX9XZ.9.b   1.&XXXXXXX X X`.M.M.M.M.x.r.v.x.P 0 X b.,X9XeX0X7X/.^.E.E.Y.F.F.4.| ).r.v.v.a.y.a.a.a.y.y.e.w.w.+.) ",
"l.{.}.I.J.J.oX>X^.F.U.C.B < [.+XXX.XXX X X X X`.`.`.).`.`..X>.+ S $XW.W.E.K.I.@XY.P.P.P.K.F.4.Y v.r.y.r.r.y.y.y.e.w.;.;.@.( ( ! ",
"y.w.w.w.w.t.w.q.q.i.C.d.c j %X+XXXXXXX X X X`.`.`.`.`.`.`.`.v.@ ..}.S.S.S.Z.Z.J.J.L.K.L.k.d.8.z >.y.y.r.>.@.O.} ! ! J W J K Z Z ",
"' ' ' ' U U U U ' ' ( ^ x & n.&XXX X).`.`.`.`.`.).).m.g.f.i.;.: { a.a.a.g.g.j.j.j.j.j.p.e.0.} 6 M U Y M v y r s s s s s d 6 +   ",
"u u p u p p p a 0 @     X   A <.<...| | | { [ { { L H H L J c 8 h Y ' ' ] ' Y U K C C M b d e u 0 ,   + , , u a u 2 0 u o j ..x.",
", - - - # 1 #   0 Y x..XOXOXA.g X # @ o u v c t : w v r * 3 r u 6 : -                   X = 0 u a & B.=X|.N.t.;.' M f o <.=X$X+X",
"e.e.w.w.] > d >.}.@X;X;X;X@XY.9.K u o .XwX9X>X@X;X:X:X4XeXeXeXeXh.o r ..<.....#.<.x.x.x.<.{ l d   n.sXiX$X{.k.i.o.} b , XX$X X X",
"k.k.k.k.-.o >.#XT.T.P.H.Z.i.4.4.o.+ E wX0X8X7X;X;X;X/.2X2X2X^.R.7.  #.`. XXX XXXXX.X X.XXX).X.d   '.pX$X}.k.k.f.q.) y h M. X X X",
"q.q.q.q.Q ; a.I.H.J.f.8.8.` &.4.X.+ :.E.G.G.C.d.d.d.d.u.8.8.` ` ( 9 | r.a.N.|.).).N.N.m.g.g.-.v = <..Xa.0.+.X.@.+.! = [ `.`.B.M.",
"! ! ! ] Z x e.0.;.o.( ( ^ ^ W G l o v J N B J J J J H B l z z y 4 o o % * 5 Z U ! H C Z c l %       % + * % * e u u > [ #.[ Y S ",
"a a ,     . - +             o , M P m 9 , ,           X 2 u d M E *.*. .*.>.E @ > u o   u *.s.A.A.A.;.=.O.*.E b u 0 1 X @ - < @ ",
"0 - A >.*. . . .=.s.Z.L.oX@X:X:X:X7X/.u.  b }.OXOX#X>X>X0XrXeXyXkXzXbXlXlXmXeX- 0   R ,XcXzXyXyXkXeXeX7X8X8X@X@X@XoXS.} 2 0 ; A ",
"s 6 a.#X9X>X>X@X;X2X2X7X7X2X2X2X2X3X3X7.  h rXzXkXkXkXyXeXyXkXkXdX5X4X4X4X3XU.F o %XLXNXeX7X2X/./.^.^.W.E.U.G.G.G.G.d.i.P   n.iX",
"t A m.k.k.z.z.Z.Z.Z.k.Z.J.I.I.I.W.^.R.&.> a _.K.Z.L.T.Y.K.Y.Y.Y.~./.W.Y.C.C.u.G R JXLX,X#X@X@XW.W.Y.K.K.Z.H.Z.k.d.u.q.9.K   +XwX",
"v A x.g.g.g.g.g.g.g.f.j.f.p.p.i.p.i.&.G p h ! H B L  .( ^ ^ ^ W ! ( W G B H m ; R sXpX#XOX{.J.J.J.k.i.q.9.-._ o.o.X.( ! v 1 (.I.",
"M 0 U } } | | ] ! ! ! K n v 3 % % % + +     ; y y y w t y v v m v v y z d r u 6 f M.j.a.;.;.;. .! K Z n v z b 5         + o ] ! ",
"+ @           - u u > - u o R *.*.*.>.<.1.>.Y a a f x a 7 3 % +   + 9 , u u 0 + A f f @ .   . u 2 > p d d f & E b.1.>.*.E E ..{ ",
"j.A.L.OXOXoXu.H - 2 1 q   1.LXBXBXvXBXFXFXFXBXvXvXvXvXvXvXlXkX-X-XA.K M d p   [.aXrXrXrXcXcXrXrX:X^ d s p e f aXMXMXzXzXzXzXzXrX",
";X/.;X7X;XeX!.d./ z i q   &XzX4XkXnXnXnXnXdXnXSXSXAXZXZXZXZXZXZXAXnX6.&. .c ..vXnXhXZXgXdXdX4X3XR.d.) V M   '.MX4X2X2X!.2X3X!.!.",
"J.J.I.T.@X/.F.6.5.W a   n.pX>X9X>XeXkX4X4X4X4XkXlXlXnXnXZXjXjXjXjXjXV./ O.% <XSXfXfXfX3XR.R.U.Y.C.7.5.Q S + =XcX7X/.^.^.!.^.^.R.",
"p.f.f.i.k.L.5.4.$.W p   %X<XoX>X;X;X/.4X4X4X4X3XeXuXzXlXnXhXjXjXjXjXR./ ^ x NXuXE.E.Y.P.Y.P.K.P.C.5.%./ V v 6XrX7X/.^.^.^.!.R.G.",
"@.@.w.9.8.` ` &.%.! p h 1.M.}.oXoXT.Y.W.^.^.4X3X4XuXuXuXkXkXdXfXfXjX!.~ g x.aXW.@XT.T.P.K.G.d.d.u.%.%.^ c Y 6XiX9X/.W.W.W.Y.K.k.",
"x d b v t 5 k * +       f Y { O.e.p.p.h.h.Z.K.K.Y.oXoXT.Y.Y.E.!.!.3X!._ o M.(.q.q.q.q.9.4.4.8.` _ / W ! M n +X+XZ.h.i.i.q.q.q.9.",
"0 0 X u E E >._.].-X-XA.L         @ > e e 0 u 6   o & w g g l c G G / H e b 4 4 + X o ; : : e r w e 6       l l l m C n n n v l ",
"i - >.wXzXzXbXmXmXmXmXmXlX4Xu.} Y m 9 1 < $ X O >...A q @ $ j j q $ .       9 @ I R R l t d p , 0 1 o n.&X].s.=.E > # 0 0 > ; : ",
"2 I {.oXL.Y.;X2XeXeXkXkXnXdXR.Z.h.=.P u 2 2   pXVXFXFXFXFXFXFXFXBXBXmXzXrX=.< KXUXPXsXpXOXj.w.X.A   *XIXIXNXcXcXrX_.F , > p T Y ",
"u ..v.a.a.a.g.h.Z.Y.W.^.^.U.U.U.C.u.;.v f   [.IXbXSXAXZXZXnXhXhXhXhXgXdX4X&.j UXUXIXNXMXcXuX#Xi.; R KXJX<X<X,XpXrXY.o.> x.&X=X.X",
"a ..r.a.a.a.a.a.p.a.s.h.G.G.G.U.F.C.u.U u   KXLXBXbX5X5X5X5X1X1X1XR.V.6.~ 3 ,.IXIXsXwXwX>X#XH.)   [.UXJX=X<X=X+X.Xg.H u =XpX$X$X",
"i [ r.r.y.a.a.a.p.a.a.a.Z.G.F.F.D.V.d.-.  <.LXtX0X7XE.E.E.R.F.d.5.` / W L g I =X$X|.|.J.f.4./ M : *XHX%Xb.x.x...H V v p =XiX$X+X",
"i T >.:.e.e.y.a.a.p.a.g.h.C.C.C.V.V.d.( : I p.8./ W W W G N N N V l %                   e b       D o       X 3 d b e : =X<X.X|.",
"$ 1 M S P P ' #.>.:.;.0.-.&./ / W H 5           + 4 4 w w r u d   ..].].OX-XrXxXrXrXxX-XF   b.+X,X,X-XOX].A.s.{ b 2 .   S | ' U ",
"I E 7 1 1 2 1 2 0 u p r r e 4 6 & 4 *.s._.OX,X_.:.P T Y v - j   n.IXGXDXDXDXDXDXDXDXDXlX7.q LXCXVXFXBXBXmXmXmXbXzXzXzXeXY.=.c ; ",
"#X{.:.U S b d a a p 2 2 2 2 a C =.OXzXBXBXBXBXzXeX>Xy.@.^ 0 q   KXGXnXZXnXhXhXhXhXdXQ.D.6...NXyX1XQ.!.!.!.!.!.1X1X3X4X4XdXkX4X~.",
"H.k.l.g.e.@.| ' M b a i i e U s.@X@X:XyXeXeX7X2XeXeX~.L.%.a   HXIXuX0X9X0X0X2X7X^.F.F.U.6.#.uXeX!.Q.Q.Q.R.R.R.R.U.U.U.U.D.D.R.R.",
"f.f.p.f.p.0.q.0.} v a i 2 x r.}.oX@X@X@X;X/././././.;XY.-.  [.UXaX>XwXwXqX9X7XW.G.G.G.F./ t {.@XD.R.U.G.G.F.G.F.F.F.V.F.F.C.C.V.",
"@.+.+.+.+.-.+.+.o.! b i i I #.:.a.j.f.s.j.J.L.h.i.0.-./ J % PXIXpXwX#X#X#X#XW.P.P.G.G.5.c 1 , K ( &.-.8.8.9.8.8.` _ ` _ / / / ~ ",
"O.@.@.o.o.o.o.X.) ( b u - 6 r 4 : 8 & + o ; 6 6 , > ; ,   B.JXiX$X{.l.{.J.f.i.q.9.&._ c , 2 2 < , e e ; r % % + o o + % 4 r t l ",
"C C C C M M m m n d , d I Y { ..[ m P { P t o   # $ 1 h f *     5 Z H V n V B l t w e 0 h A A u 0 p   XXwXW.T.Y.K.Z.h.0.L v l 5 ",
"u u 9 , - , e e u , A M.=X=X,XiXwXwXqXwXwX>XL.p.H   M.NXMXuXiXM.A     X u d d f x d z S { | | P A = S sXeX4XeXeXeX7X7XyXyXtXtX8X",
"U U ' o.-.-.! H b , #.l.}.$X$X,XwXwXqXqXqX0XtXT.W   `.CXCXCXCXCXNXaX=X| w e u S U >.).A.oX@XL.e...  c.sXW.P.d.d.7.$.5.F.G.Y.E.E.",
"m.(.(.L.K.d.u.&.K p >.g.f.|.$X$X$X$XwXwXwX>X#Xd.W   +XCXNXNXNXNXCXCXaXl.( e u P ' :.|.@X9X9X@Xq.|   XXsXf.` 2.2.2.4.` ` ` ` ` ~ ",
"y.g.p.i.5.5.5.5.( b Y O.@.@.r.r.r.a.l.l.j.h.u.5.H   >.N.@.( -.t.f.q.` q.X.p p M Y U ! / ) ~ W K 4   B.B.N ^ ) ) / Q W J H H V n ",
"+.+.+.4.5.5.5.4._ b - 9 u u > > = = : : 4 t 3 c P *. .g 8 o                   X X o , p X A I n P e j -                   + 5 d ",
"' } X.-.4.&.` ) ! 6 . .   . @ * * - 1 0 : M .XzXmXSXmXmXmXlXeX:XW.W.@X-X-X>X:XL.i.-.v   1.PXaXyXyXeX0XqX>X#X@XoXoXoXL.L.Z.j.-.B ",
"x z m V H H v % > U e.j.(.j.0.;.-.} d 1 % $XVXmXbXkXeXlXmXmXSXSXSXSXSXmXbXlXkX4X^.T./   =XNXyXyXkXkXyXyXyXkXkXkXyXyXyX7X7X;Xi.Q ",
"2 p u 0 u   : =.A.9XkXkXkXyXeX2X/.P. .o A  XA.Z.A.}.OX|.|.|.|.#X-X:X:X:X/.~.W./.W.K.J X iXaXi.q.i.q.9.9.q.h.S.h.i.i.i.&._ / W c ",
"v u u 0 & ..OXqX0X9X9X/.U.D.D.6.6.%.V X @ ; r M C K C H H K K U ' L '  . .} } O.^ H 6 i c.| l V V V V c v v v v l y s z z t K @.",
";.C 2 h ..|.|.S.f.9.4.5.7.7.7.5.` B & A R R A % o + X o 9 , , > & & & & & & & + @ > > f o   + X   & 8 9 9 8 9 e 9 0 0 2 - | oX>X",
"0.! 0 ..r.w.w.w.t.q.i.d.u.u.4.^ c 4 [.<X+XXX`.b.O.Y { P o # 1 A P U K K L L ! ( ! X x.pXpX+X).b.<.{ F P I I I I I P u 1 a #.{.oX",
"O.K p A U ' ] | | } ) _ _ ( H w 2 |.aXMXMXMXMXcXaXrX0X9Xh.y - A ..@.;.-.8.9.9.q.}   >.,XwXwXwXwXaXpX+XN.m.v.x.x.x.>.d 2 x ] @.:.",
"C x - @ 2 u u s r r d d d d = h ).tXtXtXtXtXuXuXuXyXeXeXE.G # u 5 c J / ) ) ( Q l # b 0.p.t.e.p.j.(.).M.v.>.>.#.#.' r 2 a f f u ",
"> > A S b x s s s d u , u - x ).>X9XqXqXqX0X0X0X0X8X7X2XD.~ < 0 n.x.#...{ ' Y P b o       % : e 6 * + % ; 4 w w t l d e - @ - 2 ",
"' >.N.(.(.(.l.l.l.j.g.>.: a `.,X#XqX0X0X0X0X9X8X0X0X2X!.V./   x.NXMXaXcXzXuXuXuXrX0X>X|.e.( H s u u >._.|.|.|.}.}.}.{.m.v.r.| r ",
"m.g.j.S.Z.S.S.S.l.l.Z.j.t Y .XOX#X#X#X#X#X#X#X@X/.E.U.U.7.W X a.8X2X2X2X2X2X2X2X3X4X5XkX5X5X2X@XF - #.s.h.Z.{.J.{.}.{.{.N.g.@.n ",
"y.y.y.j.N.l.l.l.l.l.l.p.t l t.f.l.l.z.J.J.{.J.J.H.k.Z.Z.5.B * @.f.l.I.I.I.I.@X;X7X^.!.!.!.R.R.U.L @ Z ] Q X.X.o.+.+.+.+.+.) B b ",
"@.w.w.w.w.w.w.w.3.3.3.Q e u Z Z J ! Q Q ( } } X.o.o.o.X.W z - M Z | w.g.N.}.|.(.k.u.5.q.9.9.5.&.n u M ] X.X.X.X.X.X.) ) ( Q Z b ",
"4 l v Z Z Z Z Z V V n y ;     > , > > , > > , , e e 4 : + + ,   o y v V K { L B Q ! ( G N N 5 X       > M L ! K H H K Z Z C b s ",
"<.#.U w u u u , ; ; ; w L v.b.| I S A f s s 2 2 2 u A [ OXrXaX,X@.x f s 4 ; 4 y s , X R ,...y.=.>.*...P <       > 9 0 p X   4 n ",
"m.m.w.B d u u I [ [ #.(.$X,X,X+Xv.<.#.#.[ S s 2 < I ..e.>X0X8XeXtX#X#.[ S A x 6 a   %XLXNXcXkXbXbXlXlXlXeXoX_.j.V u 9 @ ..+XiXpX",
"w.w.-.W m e u <.M.`..X+X|.|._.OXOX).v.x.x.r.U 2 2 ..O.p.#XoXT.Y.E.W.J.a.>.#...' y   JXiXU.F.D.R.R.!.R.!.2X4XeX2Xu.; A n.sXsX=X.X",
"w.w.-._ L z d #.v.N.N.m.m.N.N.N.N.).|.}.}.(.O.6 u O.@.(.OXL.T.P.P.K.Z.l.f.y.y.;.m . *X}.i.u.u.d.d.d.d.d.d.d.V.V.%.& ,.&X=X&XB.M.",
"@.+.%._ ! n d #.r.v.m.a.a.a.a.a.a.a.a.j.OXA.) s b a.j.OXJ.J.J.K.K.K.H.J.J.S.j.0.V $ %Xg.q.p.f.q.q.q.q.q.q.q.9.q.! ; c.&X=X XM.M.",
"] } ) / Q n u | :.r.e.w.w.w.w.w.w.e.e.w.j.h.( d b v.(.{.l.l.l.k.Z.Z.Z.H.J.L.L.i.V 1 ..' ' K C Z n n n v v v z z s 6 n.%X Xv.m.m."
};